<?xml version="1.0" encoding="UTF-8" standalone="no"?>
<svg
   xmlns:dc="http://purl.org/dc/elements/1.1/"
   xmlns:cc="http://creativecommons.org/ns#"
   xmlns:rdf="http://www.w3.org/1999/02/22-rdf-syntax-ns#"
   xmlns:svg="http://www.w3.org/2000/svg"
   xmlns="http://www.w3.org/2000/svg"
   xmlns:sodipodi="http://sodipodi.sourceforge.net/DTD/sodipodi-0.dtd"
   xmlns:inkscape="http://www.inkscape.org/namespaces/inkscape"
   width="400"
   height="400"
   viewBox="0 0 105.83334 105.83334"
   version="1.1"
   id="svg634"
   inkscape:version="1.0.1 (1.0.1+r73)"
   sodipodi:docname="icon.svg"
   inkscape:export-filename="/home/john/Downloads/jenkins-icon.png"
   inkscape:export-xdpi="48"
   inkscape:export-ydpi="48">
  <defs
     id="defs628" />
  <sodipodi:namedview
     id="base"
     pagecolor="#ffffff"
     bordercolor="#666666"
     borderopacity="1.0"
     inkscape:pageopacity="0.0"
     inkscape:pageshadow="2"
     inkscape:zoom="0.7"
     inkscape:cx="59.999996"
     inkscape:cy="274.28571"
     inkscape:document-units="mm"
     inkscape:current-layer="layer1"
     showgrid="false"
     units="px"
     inkscape:pagecheckerboard="true"
     inkscape:window-width="1920"
     inkscape:window-height="977"
     inkscape:window-x="0"
     inkscape:window-y="34"
     inkscape:window-maximized="1"
     inkscape:document-rotation="0" />
  <metadata
     id="metadata631">
    <rdf:RDF>
      <cc:Work
         rdf:about="">
        <dc:format>image/svg+xml</dc:format>
        <dc:type
           rdf:resource="http://purl.org/dc/dcmitype/StillImage" />
        <dc:title></dc:title>
      </cc:Work>
    </rdf:RDF>
  </metadata>
  <g
     inkscape:label="Layer 1"
     inkscape:groupmode="layer"
     id="layer1"
     transform="translate(0,-164.70832)">
    <g
       id="g946"
       transform="matrix(2.6720477,0,0,2.6720477,-51.110285,-504.26525)">
      <path
         id="XMLID_3_"
         class="st0"
         d="m 49.356131,269.57426 c 0,5.90021 -4.683125,10.66271 -10.424583,10.66271 -5.767917,0 -10.424584,-4.78896 -10.424584,-10.66271 0,-5.90021 4.683125,-10.68917 10.424584,-10.68917 5.767916,0 10.424583,4.78896 10.424583,10.68917"
         inkscape:connector-curvature="0"
         style="fill:#d33833;stroke-width:0.264583" />
      <path
         id="XMLID_4_"
         class="st1"
         d="m 28.903839,272.22009 c 0,0 -0.767291,-11.13896 9.498542,-11.45646 l -0.714375,-1.19062 -5.55625,1.87854 -1.5875,1.82562 -1.402292,2.6723 -0.79375,3.09562 0.238125,2.06375"
         inkscape:connector-curvature="0"
         style="fill:#ef3d3a;stroke-width:0.264583" />
      <path
         id="XMLID_7_"
         class="st2"
         d="m 31.787798,262.27176 c -1.825625,1.87854 -2.963334,4.47146 -2.963334,7.32896 0,2.8575 1.137709,5.45041 2.963334,7.32895 1.825625,1.87855 4.365625,3.01625 7.14375,3.01625 2.804583,0 5.318125,-1.16416 7.14375,-3.01625 1.825625,-1.87854 2.963333,-4.47145 2.963333,-7.32895 0,-2.8575 -1.137708,-5.45042 -2.963333,-7.32896 -1.825625,-1.87854 -4.365625,-3.01625 -7.14375,-3.01625 -2.804584,0 -5.318125,1.16416 -7.14375,3.01625 z m -0.47625,15.10771 c -1.957917,-1.98438 -3.148542,-4.73605 -3.148542,-7.77875 0,-3.04271 1.190625,-5.79438 3.148542,-7.77875 1.957916,-1.98438 4.630208,-3.22792 7.62,-3.22792 2.963333,0 5.662083,1.24354 7.62,3.22792 1.957916,1.98437 3.148541,4.73604 3.148541,7.77875 0,3.0427 -1.190625,5.79437 -3.148541,7.77875 -1.957917,1.98437 -4.630209,3.22791 -7.62,3.22791 -2.989792,0 -5.662084,-1.24354 -7.62,-3.22791"
         inkscape:connector-curvature="0"
         style="fill:#231f20;stroke-width:0.264583" />
      <polyline
         id="XMLID_8_"
         class="st3"
         points="124.8,248.2 118.8,249.1 110.7,250 105.4,250.1 100.3,250 96.4,248.8 92.9,245    90.2,237.4 89.6,235.7 86,234.5 83.9,231.1 82.4,226.1 84.1,221.7 88,220.4 91.1,221.9 92.6,225.2 94.4,224.9 95,224.1 94.4,220.7    94.3,216.3 95.2,210.3 95.1,206.9 97.9,202.5 102.7,199 111.1,195.4 120.4,196.8 128.5,202.7 132.3,208.7 134.7,213 135.3,223.8    133.5,233.2 130.2,241.4 127,245.8  "
         style="fill:#f0d6b7"
         transform="matrix(0.26458333,0,0,0.26458333,10.303631,203.95759)" />
      <polyline
         id="XMLID_9_"
         class="st4"
         points="119.7,274.2 98.2,275.1 98.2,278.7 100,291.3 99.1,292.4 84.1,287.3 83,285.5    81.5,268.5 78,258.3 77.3,255.8 89.3,247.6 93.1,246.1 96.4,250.1 99.2,252.7 102.5,253.7 104,254.2 105.8,262 107.2,263.7    110.7,262.5 108.2,267.1 121.3,273.3 119.7,274.2  "
         style="fill:#335061"
         transform="matrix(0.26458333,0,0,0.26458333,10.303631,203.95759)" />
      <polyline
         id="XMLID_10_"
         class="st5"
         points="84.1,221.7 88,220.4 91.1,221.9 92.6,225.2 94.4,224.9 94.9,223.1 94,219.6    94.9,211.4 94.1,206.9 96.8,203.7 102.7,199 101,196.8 92.8,200.8 89.3,203.6 87.4,207.8 84.4,211.8 83.5,216.6 84.1,221.7  "
         style="fill:#6d6b6d"
         transform="matrix(0.26458333,0,0,0.26458333,10.303631,203.95759)" />
      <path
         id="XMLID_11_"
         class="st6"
         d="m 34.169048,258.88509 c 0,0 0.608541,-1.48167 2.989791,-2.19604 2.38125,-0.71438 0.132292,-0.52917 0.132292,-0.52917 l -2.592917,1.00542 -1.005416,1.00542 -0.449792,0.79375 0.926042,-0.0794"
         inkscape:connector-curvature="0"
         style="fill:#dcd9d8;stroke-width:0.264583" />
      <path
         id="XMLID_12_"
         class="st6"
         d="m 32.978423,262.35113 c 0,0 -0.846667,-2.77812 2.354791,-3.175 l -0.132291,-0.47625 -2.196042,0.52917 -0.635,2.06375 0.15875,1.34937 0.449792,-0.29104"
         inkscape:connector-curvature="0"
         style="fill:#dcd9d8;stroke-width:0.264583" />
      <path
         id="XMLID_13_"
         class="st7"
         d="m 34.248423,266.0553 0.529166,-0.50271 c 0,0 0.238125,0.0265 0.264584,0.3175 0.05292,0.29104 0.15875,2.77813 1.878541,4.1275 0.15875,0.13229 -1.27,-0.21167 -1.27,-0.21167 l -1.27,-1.98437"
         inkscape:connector-curvature="0"
         style="fill:#f7e4cd;stroke-width:0.264583" />
      <path
         id="XMLID_14_"
         class="st7"
         d="m 41.577381,265.28801 c 0,0 0.105833,-1.21709 0.423333,-1.11125 0.3175,0.10583 0.3175,0.42333 0.3175,0.42333 0,0 -0.79375,0.50271 -0.740833,0.68792"
         inkscape:connector-curvature="0"
         style="fill:#f7e4cd;stroke-width:0.264583" />
      <path
         id="XMLID_15_"
         class="st7"
         d="m 44.858214,260.86947 c 0,0 -0.661458,0.13229 -0.714375,0.71437 -0.05292,0.58208 0.714375,0.13229 0.846667,0.0794"
         inkscape:connector-curvature="0"
         style="fill:#f7e4cd;stroke-width:0.264583" />
      <path
         id="XMLID_16_"
         class="st7"
         d="m 40.069256,260.92238 c 0,0 -0.873125,0.13229 -0.873125,0.68792 0,0.55562 1.005417,0.52917 1.27,0.29104"
         inkscape:connector-curvature="0"
         style="fill:#f7e4cd;stroke-width:0.264583" />
      <path
         id="XMLID_17_"
         class="st7"
         d="m 34.645298,263.48884 c 0,0 -1.508125,-0.92604 -1.666875,-0.0529 -0.15875,0.87313 -0.529167,1.50813 0.238125,2.43417 l -0.529167,-0.15875 -0.47625,-1.24354 -0.15875,-1.19063 0.926042,-0.9525 1.031875,0.0794 0.608541,0.47625 0.02646,0.60854"
         inkscape:connector-curvature="0"
         style="fill:#f7e4cd;stroke-width:0.264583" />
      <path
         id="XMLID_18_"
         class="st7"
         d="m 35.359673,261.00176 c 0,0 0.687916,-3.4925 4.101041,-4.18042 2.804584,-0.55562 4.28625,0.13229 4.841875,0.76729 0,0 -2.513541,-2.98979 -4.894791,-2.06375 -2.38125,0.92604 -4.1275,2.59292 -4.101042,3.65125 0.07937,1.82563 0.05292,1.82563 0.05292,1.82563"
         inkscape:connector-curvature="0"
         style="fill:#f7e4cd;stroke-width:0.264583" />
      <path
         id="XMLID_19_"
         class="st7"
         d="m 44.593631,257.98551 c 0,0 -1.164167,-0.0529 -1.190625,1.00541 0,0 0,0.15875 0.07938,0.3175 0,0 0.926042,-1.03187 1.481667,-0.47625"
         inkscape:connector-curvature="0"
         style="fill:#f7e4cd;stroke-width:0.264583" />
      <path
         id="XMLID_20_"
         class="st7"
         d="m 39.540089,259.3878 c 0,0 -0.211666,-1.5875 -1.561041,-0.66146 -0.873125,0.60854 -0.79375,1.42875 -0.635,1.5875 0.15875,0.15875 0.105833,0.47625 0.238125,0.26458 0.132291,-0.21166 0.07938,-0.92604 0.529166,-1.1377 0.423334,-0.18521 1.164167,-0.42334 1.42875,-0.0529"
         inkscape:connector-curvature="0"
         style="fill:#f7e4cd;stroke-width:0.264583" />
      <path
         id="XMLID_21_"
         class="st8"
         d="m 35.809464,270.12988 -3.730625,1.66688 c 0,0 1.561042,6.16479 0.767292,8.06979 l -0.555625,-0.21167 -0.05292,-2.35479 -1.031875,-4.445 -0.449791,-1.24354 3.889375,-2.61938 1.164166,1.13771"
         inkscape:connector-curvature="0"
         style="fill:#49728b;stroke-width:0.264583" />
      <path
         id="XMLID_22_"
         class="st8"
         d="m 36.179881,273.54301 0.529167,0.635 v 2.38125 h -0.635 c 0,0 -0.07937,-1.66688 -0.07937,-1.87854 0,-0.21167 0.07937,-0.92605 0.07937,-0.92605"
         inkscape:connector-curvature="0"
         style="fill:#49728b;stroke-width:0.264583" />
      <polyline
         id="XMLID_23_"
         class="st8"
         points="97.9,275.8 91.1,276.1 93.1,277.5 97.9,278.2  "
         style="fill:#49728b"
         transform="matrix(0.26458333,0,0,0.26458333,10.303631,203.95759)" />
      <polyline
         id="XMLID_24_"
         class="st4"
         points="121,274.3 126.6,274.2 127.9,288 122.2,288.8 121,274.3  "
         style="fill:#335061"
         transform="matrix(0.26458333,0,0,0.26458333,10.303631,203.95759)" />
      <path
         id="XMLID_25_"
         class="st4"
         d="m 42.715089,276.5328 2.2225,-0.13229 c 0,0 0.926042,-2.30188 0.926042,-2.43417 0,-0.13229 0.79375,-3.33375 0.79375,-3.33375 l -1.799167,-1.87854 -0.370416,-0.3175 -0.9525,0.9525 v 3.70417 l -0.820209,3.43958"
         inkscape:connector-curvature="0"
         style="fill:#335061;stroke-width:0.264583" />
      <path
         id="XMLID_26_"
         class="st8"
         d="m 43.720506,276.26822 -1.402292,0.29104 0.211667,1.11125 c 0.529167,0.23812 1.402292,-0.39688 1.402292,-0.39688"
         inkscape:connector-curvature="0"
         style="fill:#49728b;stroke-width:0.264583" />
      <polyline
         id="XMLID_27_"
         class="st8"
         points="126.4,247 137,254.8 137.3,251.2 129.3,243.8 126.4,247  "
         style="fill:#49728b"
         transform="matrix(0.26458333,0,0,0.26458333,10.303631,203.95759)" />
      <polyline
         id="XMLID_28_"
         class="st9"
         points="103.1,303.9 100,291.3 98.4,282 98.2,275.1 112.3,274.3 121,274.3 120.2,290.1    121.6,302.3 121.4,304.5 110,305.4 103.1,303.9  "
         style="fill:#ffffff"
         transform="matrix(0.26458333,0,0,0.26458333,10.303631,203.95759)" />
      <path
         id="XMLID_29_"
         class="st6"
         d="m 41.815506,276.50634 c 0,0 -0.211667,4.1275 0.396875,7.06438 0,0 -1.190625,0.76729 -2.936875,0.9525 l 3.33375,-0.1323 0.396875,-0.23812 -0.47625,-6.50875 -0.132292,-1.40229"
         inkscape:connector-curvature="0"
         style="fill:#dcd9d8;stroke-width:0.264583" />
      <polyline
         id="XMLID_30_"
         class="st9"
         points="128.2,286.8 134.1,285.2 145.2,284.6 146.8,279.4 143.8,270.6 140.4,270.1    135.6,271.6 130.9,273.9 128.5,273.4 126.6,274.2  "
         style="fill:#ffffff"
         transform="matrix(0.26458333,0,0,0.26458333,10.303631,203.95759)" />
      <path
         id="XMLID_31_"
         class="st6"
         d="m 44.196756,279.04634 c 0,0 1.031875,-0.47625 1.190625,-0.44979 l -0.449792,-2.19604 0.529167,-0.21167 c 0,0 0.370417,2.06375 0.370417,2.30188 0,0 2.2225,0.13229 2.434166,0.13229 0,0 0.47625,-0.92604 0.370417,-1.87854 l 0.449792,1.27 0.05292,0.71437 -0.635,0.9525 -0.714375,0.15875 -1.190625,-0.0529 -0.396875,-0.52916 -1.402291,0.21166 -0.449792,0.15875"
         inkscape:connector-curvature="0"
         style="fill:#dcd9d8;stroke-width:0.264583" />
      <path
         id="XMLID_32_"
         class="st9"
         d="m 42.635714,276.2153 -0.873125,-2.2225 -0.926041,-1.32292 c 0,0 0.211666,-0.55562 0.47625,-0.55562 0.291041,0 0.926041,0 0.926041,0 l 0.873125,0.3175 -0.07937,1.48166 -0.396875,2.30188"
         inkscape:connector-curvature="0"
         style="fill:#ffffff;stroke-width:0.264583" />
      <path
         id="XMLID_33_"
         class="st6"
         d="m 42.794464,275.47447 c 0,0 -1.11125,-2.14313 -1.11125,-2.46063 0,0 0.211667,-0.47625 0.47625,-0.37042 0.291042,0.1323 0.873125,0.4498 0.873125,0.4498 v -0.7673 l -1.349375,-0.29104 -0.926041,0.13229 1.561041,3.65125 0.3175,0.0529"
         inkscape:connector-curvature="0"
         style="fill:#dcd9d8;stroke-width:0.264583" />
      <polyline
         id="XMLID_34_"
         class="st9"
         points="104.4,250.4 100.3,250 96.4,248.8 96.4,250.1 98.3,252.2 104.3,254.9  "
         style="fill:#ffffff"
         transform="matrix(0.26458333,0,0,0.26458333,10.303631,203.95759)" />
      <path
         id="XMLID_35_"
         class="st6"
         d="m 36.153423,270.34155 c 0,0 1.243541,0.52917 1.640416,0.39687 l 0.02646,0.47625 -1.11125,-0.23812 -0.687916,-0.47625 0.132291,-0.15875"
         inkscape:connector-curvature="0"
         style="fill:#dcd9d8;stroke-width:0.264583" />
      <path
         id="XMLID_36_"
         class="st0"
         d="m 44.223214,272.27301 c -0.661458,-0.0265 -1.296458,-0.10584 -1.825625,-0.23813 0.02646,-0.21166 -0.02646,-0.42333 0.02646,-0.58208 0.15875,-0.10583 0.396875,-0.10583 0.635,-0.13229 -0.185209,-0.10584 -0.47625,-0.13229 -0.687917,-0.0794 0,-0.15875 -0.07938,-0.23812 -0.105833,-0.37041 0.370416,-0.1323 1.27,-1.03188 1.772708,-0.74084 0.238125,0.13229 0.343958,0.92604 0.370417,1.32292 -0.02646,0.3175 -0.05292,0.635 -0.185209,0.82021"
         inkscape:connector-curvature="0"
         style="fill:#d33833;stroke-width:0.264583" />
      <path
         id="XMLID_37_"
         class="st0"
         d="m 44.223214,272.27301 v -0.10584 c -0.661458,-0.0265 -1.27,-0.10583 -1.799166,-0.23812 l -0.02646,0.0794 0.105834,0.0265 c 0,-0.0529 0,-0.10583 0,-0.15875 0,-0.10583 0,-0.18521 0,-0.26458 0,-0.0529 0,-0.10583 0.02646,-0.13229 l -0.07938,-0.0265 0.05292,0.0794 c 0.05292,-0.0265 0.132291,-0.0529 0.238125,-0.0794 0.105833,-0.0265 0.211666,-0.0265 0.343958,-0.0265 l 0.3175,-0.0265 -0.291042,-0.13229 c -0.15875,-0.0794 -0.3175,-0.10583 -0.502708,-0.10583 -0.07937,0 -0.15875,0 -0.238125,0.0265 l 0.02646,0.10583 h 0.105834 c 0,-0.0794 -0.02646,-0.15875 -0.05292,-0.23813 -0.02646,-0.0529 -0.05292,-0.10583 -0.07937,-0.15875 l -0.07938,0.0265 0.02646,0.0794 c 0.105834,-0.0265 0.211667,-0.10584 0.3175,-0.18521 0.185209,-0.13229 0.396875,-0.26458 0.608542,-0.39688 0.211667,-0.13229 0.423333,-0.21166 0.582083,-0.21166 0.07938,0 0.132292,0.0265 0.185209,0.0529 v 0 c 0.02646,0 0.02646,0.0265 0.05292,0.0529 0.02646,0.0529 0.07938,0.13229 0.105834,0.23813 0.105833,0.29104 0.132291,0.71437 0.15875,0.97895 0,0.0265 0,0.0794 0,0.10584 0,0.13229 0,0.26458 -0.02646,0.37041 -0.02646,0.10584 -0.05292,0.21167 -0.105833,0.26459 h 0.02646 v -0.10584 0.10584 l 0.07937,0.0529 c 0.07938,-0.0794 0.105834,-0.21166 0.132292,-0.34395 0.02646,-0.1323 0.05292,-0.26459 0.05292,-0.42334 0,-0.0529 0,-0.0794 0,-0.13229 0,-0.21167 -0.05292,-0.50271 -0.105834,-0.76729 -0.02646,-0.13229 -0.07938,-0.26458 -0.105833,-0.37042 -0.02646,-0.0529 -0.05292,-0.10583 -0.07937,-0.15875 -0.02646,-0.0529 -0.07938,-0.0794 -0.105833,-0.10583 v 0 c -0.07938,-0.0529 -0.185209,-0.0794 -0.291042,-0.0794 -0.15875,0 -0.291042,0.0529 -0.449792,0.10584 -0.238125,0.10583 -0.449791,0.26458 -0.661458,0.39687 -0.105833,0.0794 -0.185208,0.13229 -0.264583,0.18521 -0.07938,0.0529 -0.15875,0.0794 -0.211667,0.10583 l -0.07937,0.0265 0.02646,0.0794 c 0.02646,0.0794 0.05292,0.13229 0.07937,0.18521 0.02646,0.0529 0.02646,0.10583 0.02646,0.15875 v 0.10583 l 0.105833,-0.0265 c 0.05292,-0.0265 0.132292,-0.0265 0.211667,-0.0265 0.15875,0 0.3175,0.0265 0.423333,0.10584 l 0.05292,-0.0794 v -0.10583 c -0.105834,0 -0.238125,0.0265 -0.343959,0.0265 -0.105833,0.0265 -0.238125,0.0529 -0.3175,0.10583 l -0.02646,0.0265 v 0.0265 c -0.02646,0.0529 -0.02646,0.13229 -0.02646,0.1852 0,0.10584 0,0.18521 0,0.26459 0,0.0529 0,0.0794 0,0.13229 l -0.02646,0.0794 0.07938,0.0265 c 0.555625,0.15875 1.164167,0.23813 1.852084,0.26459 h 0.05292 l 0.02646,-0.0265 z"
         inkscape:connector-curvature="0"
         style="fill:#d33833;stroke-width:0.264583" />
      <path
         id="XMLID_38_"
         class="st0"
         d="m 40.995298,271.16176 c 0,0.0529 0,0.10583 0,0.15875 -0.211667,0.13229 -0.555625,0.13229 -0.79375,0.26458 0.343958,0.0265 0.608541,0.10583 0.846666,0.21167 0,0.13229 0,0.26458 -0.02646,0.39687 -0.396875,0.26459 -0.740833,0.66146 -1.190625,0.89959 -0.211667,0.10583 -0.978958,0.42333 -1.190625,0.37041 -0.132292,-0.0265 -0.132292,-0.18521 -0.185208,-0.34396 -0.105834,-0.3175 -0.370417,-0.84666 -0.396875,-1.32291 -0.02646,-0.60854 -0.07938,-1.64042 0.582083,-1.53459 0.529167,0.10584 1.164167,0.34396 1.561042,0.58209 0.264583,0.10583 0.396875,0.29104 0.79375,0.3175"
         inkscape:connector-curvature="0"
         style="fill:#d33833;stroke-width:0.264583" />
      <path
         id="XMLID_39_"
         class="st0"
         d="m 40.995298,271.16176 h -0.105834 c 0,0.0529 0,0.10583 0,0.15875 h 0.105834 l -0.05292,-0.0794 c -0.07938,0.0529 -0.211667,0.0794 -0.343958,0.13229 -0.132292,0.0265 -0.291042,0.0529 -0.423334,0.1323 l -0.3175,0.15875 0.370417,0.0265 c 0.3175,0.0265 0.582083,0.0794 0.79375,0.21167 l 0.05292,-0.0794 h -0.105834 c 0,0.13229 0,0.26458 -0.02646,0.39687 h 0.105833 l -0.05292,-0.0794 c -0.211667,0.13229 -0.396875,0.29104 -0.582084,0.47625 -0.185208,0.15875 -0.396875,0.3175 -0.608541,0.42333 -0.07938,0.0529 -0.291042,0.13229 -0.529167,0.21167 -0.105833,0.0265 -0.211667,0.0794 -0.3175,0.10583 -0.105833,0.0265 -0.185208,0.0529 -0.238125,0.0529 -0.02646,0 -0.02646,0 -0.05292,0 -0.02646,0 -0.02646,0 -0.02646,-0.0265 -0.02646,-0.0265 -0.02646,-0.0529 -0.05292,-0.10584 -0.02646,-0.0529 -0.02646,-0.10583 -0.05292,-0.15875 v 0 c -0.05292,-0.15875 -0.15875,-0.37041 -0.238125,-0.60854 -0.07938,-0.23812 -0.132292,-0.47625 -0.15875,-0.68791 0,-0.15875 -0.02646,-0.3175 -0.02646,-0.50271 0,-0.23813 0.02646,-0.50271 0.07937,-0.68792 0.02646,-0.0794 0.07937,-0.15875 0.132292,-0.18521 0.05292,-0.0529 0.105833,-0.0529 0.185208,-0.0529 0.02646,0 0.05292,0 0.07938,0 0.529167,0.10583 1.137709,0.34395 1.534584,0.55562 0.105833,0.0529 0.211666,0.13229 0.343958,0.21167 0.132292,0.0794 0.264583,0.13229 0.47625,0.13229 l 0.05292,-0.13229 h -0.105834 0.105834 v -0.10584 c -0.185209,-0.0264 -0.291042,-0.0529 -0.396875,-0.10583 -0.105834,-0.0529 -0.211667,-0.13229 -0.343959,-0.21167 -0.423333,-0.23812 -1.058333,-0.47625 -1.613958,-0.58208 -0.05292,0 -0.07937,0 -0.132292,0 -0.132291,0 -0.238125,0.0529 -0.3175,0.10583 -0.132292,0.10584 -0.185208,0.26459 -0.211667,0.4498 -0.02646,0.1852 -0.05292,0.37041 -0.05292,0.58208 0,0.18521 0,0.34396 0.02646,0.50271 0,0.26458 0.07937,0.52916 0.15875,0.74083 0.07937,0.23813 0.185209,0.44979 0.238125,0.60854 v 0 c 0.02646,0.0794 0.02646,0.15875 0.07938,0.21167 0.02646,0.0265 0.02646,0.0794 0.07937,0.10583 0.02646,0.0265 0.07938,0.0529 0.132292,0.0794 0.02646,0 0.05292,0 0.07938,0 0.07938,0 0.185208,-0.0265 0.291042,-0.0529 0.15875,-0.0529 0.343958,-0.10583 0.502708,-0.15875 0.15875,-0.0529 0.291042,-0.13229 0.370417,-0.15875 0.238125,-0.13229 0.449791,-0.29104 0.635,-0.44979 0.185208,-0.15875 0.370416,-0.3175 0.555625,-0.44979 l 0.02646,-0.0265 v -0.0529 c 0,-0.13229 0,-0.26458 0.02646,-0.39687 v -0.0529 l -0.05292,-0.0265 c -0.23812,-0.13221 -0.529162,-0.21158 -0.87312,-0.21158 v 0.10583 l 0.05292,0.0794 c 0.105834,-0.0529 0.238125,-0.0794 0.370417,-0.10583 0.132292,-0.0265 0.291042,-0.0794 0.423333,-0.15875 l 0.05292,-0.0265 v -0.0529 c 0,-0.0529 0,-0.10584 0,-0.15875 v -0.0794 h -0.07937 z"
         inkscape:connector-curvature="0"
         style="fill:#d33833;stroke-width:0.264583" />
      <path
         id="XMLID_40_"
         class="st0"
         d="m 41.365714,271.90259 c -0.05292,-0.34396 -0.132291,-0.42333 -0.105833,-0.71437 0.899583,-0.60855 1.084792,1.00541 0.105833,0.71437"
         inkscape:connector-curvature="0"
         style="fill:#d33833;stroke-width:0.264583" />
      <path
         id="XMLID_41_"
         class="st0"
         d="m 41.365714,271.90259 0.105834,-0.0265 c -0.02646,-0.15875 -0.05292,-0.23812 -0.07937,-0.34396 -0.02646,-0.0794 -0.02646,-0.15875 -0.02646,-0.23812 0,-0.0265 0,-0.0794 0,-0.10583 h -0.105833 l 0.05292,0.0794 c 0.132291,-0.0794 0.238125,-0.10583 0.3175,-0.10583 0.05292,0 0.07937,0 0.132291,0.0265 0.05292,0.0265 0.07937,0.0794 0.132292,0.13229 0.02646,0.0529 0.05292,0.13229 0.05292,0.18521 0,0.10583 -0.02646,0.1852 -0.07937,0.23812 -0.05292,0.0529 -0.132292,0.10583 -0.238125,0.10583 -0.05292,0 -0.132292,0 -0.185209,-0.0265 l -0.07938,0.0794 0.105834,-0.0265 -0.105834,0.0265 -0.02646,0.0794 c 0.07938,0.0265 0.185208,0.0529 0.264583,0.0529 0.15875,0 0.3175,-0.0794 0.396875,-0.18521 0.07938,-0.10583 0.132292,-0.23812 0.132292,-0.37041 0,-0.13229 -0.02646,-0.26459 -0.105833,-0.37042 -0.05292,-0.0529 -0.07938,-0.10583 -0.15875,-0.13229 -0.05292,-0.0265 -0.132292,-0.0529 -0.211667,-0.0529 -0.132292,0 -0.264583,0.0529 -0.423333,0.15875 l -0.02646,0.0265 v 0.0529 c 0,0.0529 0,0.0794 0,0.13229 0,0.10583 0.02646,0.21167 0.02646,0.29104 0.02646,0.0794 0.05292,0.18521 0.07937,0.3175 v 0.0529 l 0.05292,0.0265 z"
         inkscape:connector-curvature="0"
         style="fill:#d33833;stroke-width:0.264583" />
      <path
         id="XMLID_42_"
         class="st1"
         d="m 42.662173,272.16717 c 0,0 -0.291042,-0.39687 -0.07938,-0.52916 0.211666,-0.13229 0.396875,0 0.529166,-0.21167 0.132292,-0.21167 0,-0.3175 0.05292,-0.55562 0.05292,-0.23813 0.238125,-0.29105 0.449792,-0.3175 0.211666,-0.0529 0.767291,-0.1323 0.846666,0.0794 l -0.238125,-0.71437 -0.47625,-0.15875 -1.508125,0.87312 -0.07937,0.44979 v 0.87313"
         inkscape:connector-curvature="0"
         style="fill:#ef3d3a;stroke-width:0.264583" />
      <path
         id="XMLID_43_"
         class="st1"
         d="m 38.508214,273.49009 c -0.05292,-0.60854 -0.105833,-1.24354 -0.15875,-1.85208 -0.07938,-0.92604 0.211667,-0.76729 1.031875,-0.76729 0.132292,0 0.767292,0.15875 0.79375,0.23812 0.211667,0.44979 -0.370416,0.34396 0.238125,0.68792 0.529167,0.29104 1.42875,-0.15875 1.217084,-0.79375 -0.105834,-0.13229 -0.608542,-0.0529 -0.79375,-0.13229 -0.3175,-0.15875 -0.608542,-0.3175 -0.926042,-0.47625 -0.396875,-0.21167 -1.296458,-0.50271 -1.719792,-0.21167 -1.058333,0.71437 0.07937,2.54 0.449792,3.30729"
         inkscape:connector-curvature="0"
         style="fill:#ef3d3a;stroke-width:0.264583" />
      <path
         id="XMLID_44_"
         class="st2"
         d="m 39.540089,259.3878 c -1.084791,-0.26458 -1.613958,0.44979 -1.957916,1.19062 -0.291042,-0.0794 -0.185209,-0.47625 -0.105834,-0.66145 0.185209,-0.52917 0.978959,-1.24355 1.613959,-1.13771 0.291041,0.0265 0.661458,0.26458 0.449791,0.60854"
         inkscape:connector-curvature="0"
         style="fill:#231f20;stroke-width:0.264583" />
      <path
         id="XMLID_45_"
         class="st2"
         d="m 44.831756,260.63134 c 0.02646,0 0.02646,0 0.05292,0 0.238125,0.50271 0.449791,1.05833 0.767291,1.50813 -0.211666,0.47625 -1.561041,0.89958 -1.534583,0.0529 0.291042,-0.13229 0.79375,-0.0265 1.058333,-0.18521 -0.15875,-0.44979 -0.396875,-0.79375 -0.343958,-1.37583"
         inkscape:connector-curvature="0"
         style="fill:#231f20;stroke-width:0.264583" />
      <path
         id="XMLID_46_"
         class="st2"
         d="m 40.095714,260.63134 c 0.238125,0.42333 0.3175,0.87313 0.635,1.19063 0.15875,0.13229 0.449792,0.3175 0.291042,0.71437 -0.02646,0.10583 -0.291042,0.3175 -0.423333,0.34396 -0.529167,0.15875 -1.719792,0.0265 -1.322917,-0.60854 0.423333,0.0265 1.005417,0.26458 1.322917,-0.0265 -0.238125,-0.37042 -0.661459,-1.13771 -0.502709,-1.61396"
         inkscape:connector-curvature="0"
         style="fill:#231f20;stroke-width:0.264583" />
      <path
         id="XMLID_47_"
         class="st2"
         d="m 44.620089,264.97051 c -0.767291,0.50271 -1.640416,1.03187 -2.910416,0.92604 -0.264584,-0.23813 -0.370417,-0.76729 -0.105834,-1.11125 0.132292,0.23812 0.05292,0.66146 0.423334,0.74083 0.714375,0.13229 1.561041,-0.44979 2.090208,-0.635 0.3175,-0.55562 -0.02646,-0.74083 -0.3175,-1.08479 -0.582083,-0.71437 -1.402292,-1.61396 -1.375833,-2.67229 0.238125,-0.18521 0.264583,0.26458 0.291041,0.34396 0.3175,0.71437 1.084792,1.66687 1.666875,2.27541 0.132292,0.15875 0.370417,0.29105 0.396875,0.39688 0.07938,0.26458 -0.185208,0.635 -0.15875,0.82021"
         inkscape:connector-curvature="0"
         style="fill:#231f20;stroke-width:0.264583" />
      <path
         id="XMLID_48_"
         class="st2"
         d="m 34.380714,264.44134 c -0.238125,-0.13229 -0.291041,-0.74083 -0.582083,-0.76729 -0.396875,-0.0265 -0.343958,0.79375 -0.343958,1.27 -0.291042,-0.26458 -0.343959,-1.03188 -0.132292,-1.45521 -0.238125,-0.10583 -0.343958,0.13229 -0.47625,0.21167 0.185208,-1.21709 1.799167,-0.55563 1.534583,0.74083"
         inkscape:connector-curvature="0"
         style="fill:#231f20;stroke-width:0.264583" />
      <path
         id="XMLID_49_"
         class="st2"
         d="m 45.122798,265.47322 c -0.370417,0.68791 -0.873125,1.4552 -1.931459,1.48166 -0.02646,-0.21166 -0.02646,-0.55562 0,-0.68791 0.820209,-0.10584 1.322917,-0.50271 1.931459,-0.79375"
         inkscape:connector-curvature="0"
         style="fill:#231f20;stroke-width:0.264583" />
      <path
         id="XMLID_50_"
         class="st2"
         d="m 40.042798,265.92301 c 0.687916,0.34396 1.931458,0.39687 2.831041,0.37041 0.05292,0.21167 0.05292,0.4498 0.05292,0.68792 -1.190625,0.0794 -2.592917,-0.23812 -2.883958,-1.05833"
         inkscape:connector-curvature="0"
         style="fill:#231f20;stroke-width:0.264583" />
      <path
         id="XMLID_51_"
         class="st2"
         d="m 39.910506,266.58447 c 0.47625,1.16416 2.090208,1.03187 3.439583,1.00541 -0.05292,0.15875 -0.185208,0.34396 -0.343958,0.39688 -0.423333,0.18521 -1.640417,0.3175 -2.248958,0 -0.370417,-0.21167 -0.635,-0.66146 -0.846667,-0.92604 -0.105833,-0.1323 -0.608542,-0.47625 0,-0.47625"
         inkscape:connector-curvature="0"
         style="fill:#231f20;stroke-width:0.264583" />
      <path
         id="XMLID_52_"
         class="st10"
         d="m 44.567173,273.06676 c -0.555625,0.9525 -1.084792,1.905 -1.719792,2.75166 0.264583,-0.79375 0.396875,-2.14312 0.423333,-3.175 0.582084,-0.26458 1.058334,0.0529 1.296459,0.42334"
         inkscape:connector-curvature="0"
         style="fill:#81b0c4;stroke-width:0.264583" />
      <path
         id="XMLID_53_"
         class="st2"
         d="m 47.530506,276.45342 c -0.608542,0.1323 -1.058333,0.71438 -1.640417,0.68792 0.3175,-0.47625 0.899584,-0.66146 1.640417,-0.68792"
         inkscape:connector-curvature="0"
         style="fill:#231f20;stroke-width:0.264583" />
      <path
         id="XMLID_54_"
         class="st2"
         d="m 47.795089,277.43238 c -0.502708,0.0529 -1.084791,0.13229 -1.5875,0.0794 0.238125,-0.37042 1.164167,-0.23813 1.5875,-0.0794"
         inkscape:connector-curvature="0"
         style="fill:#231f20;stroke-width:0.264583" />
      <path
         id="XMLID_55_"
         class="st2"
         d="m 47.980298,278.25259 c -0.555625,0 -1.27,0 -1.799167,-0.0529 0.3175,-0.34395 1.42875,-0.10583 1.799167,0.0529"
         inkscape:connector-curvature="0"
         style="fill:#231f20;stroke-width:0.264583" />
      <path
         id="XMLID_56_"
         class="st6"
         d="m 43.508839,280.52801 c 0.07937,0.71437 0.370417,1.42875 0.3175,2.19604 -0.3175,0.10583 -0.502708,0.18521 -0.899583,0.18521 -0.02646,-0.66146 -0.105833,-1.66688 -0.07938,-2.30188 0.185208,0.0265 0.502708,-0.13229 0.661458,-0.0794"
         inkscape:connector-curvature="0"
         style="fill:#dcd9d8;stroke-width:0.264583" />
      <path
         id="XMLID_57_"
         class="st3"
         d="m 42.609256,270.10342 c -0.291042,0.18521 -0.529167,0.42334 -0.79375,0.60855 -0.608542,0.0264 -0.926042,-0.0529 -1.375833,-0.39688 0,-0.0265 0.05292,-0.0265 0.05292,-0.0529 0.635,0.29105 1.455209,-0.10583 2.116667,-0.15875"
         inkscape:connector-curvature="0"
         style="fill:#f0d6b7;stroke-width:0.264583" />
      <path
         id="XMLID_58_"
         class="st10"
         d="m 39.222589,274.49551 c 0.185209,-0.76729 0.873125,-1.16417 1.508125,-1.5875 0.661459,0.82021 1.058334,1.87854 1.481667,2.91041 -1.031875,-0.3175 -2.090208,-0.8202 -2.989792,-1.32291"
         inkscape:connector-curvature="0"
         style="fill:#81b0c4;stroke-width:0.264583" />
      <path
         id="XMLID_78_"
         class="st2"
         d="m 42.847381,280.63384 c -0.02646,0.635 0.05292,1.64042 0.07938,2.30188 0.423333,0 0.608542,-0.0794 0.899583,-0.18521 0.02646,-0.76729 -0.238125,-1.48167 -0.3175,-2.19604 -0.15875,-0.0794 -0.47625,0.0794 -0.661458,0.0794 z m -6.50875,-3.57187 c 0.264583,2.54 0.661458,4.65666 1.402292,6.90562 1.613958,0.50271 3.571875,0.52917 5.027083,0.0794 -0.264583,-1.27 -0.15875,-2.80459 -0.291042,-4.15396 -0.105833,-1.00542 -0.05292,-2.03729 -0.211666,-3.06917 -1.772709,-0.37042 -4.233334,-0.0794 -5.926667,0.23813 z m 6.323542,-0.23813 c -0.02646,1.08479 0.05292,2.16958 0.132291,3.25438 0.423334,-0.0529 0.687917,-0.10584 1.084792,-0.18521 -0.132292,-1.05834 -0.105833,-2.2225 -0.370417,-3.14854 -0.291041,0 -0.555625,0 -0.846666,0.0794 z m 2.116666,-0.15875 c -0.185208,-0.0529 -0.423333,0 -0.608541,0 0.07937,0.87313 0.3175,1.85208 0.370416,2.80458 0.291042,0 0.449792,-0.13229 0.714375,-0.1852 0,-0.82021 -0.105833,-1.95792 -0.47625,-2.61938 z m 3.201459,2.93688 c 0.608541,-0.15875 1.005416,-0.89959 0.846666,-1.69334 -0.105833,-0.52916 -0.3175,-1.50812 -0.555625,-1.85208 -0.15875,-0.23813 -0.608541,-0.58208 -0.9525,-0.34396 -0.582083,0.37042 -1.5875,0.47625 -2.010833,0.92604 0.211667,0.71438 0.264583,1.66688 0.370417,2.56646 0.714375,0.0529 1.613958,-0.21167 2.2225,0.0529 -0.423334,0.13229 -0.9525,0.13229 -1.322917,0.34396 0.238125,0.13229 0.9525,0.10583 1.402292,0 z m -5.767917,-3.78355 c -0.423333,-1.03187 -0.820208,-2.0902 -1.481667,-2.91041 -0.635,0.42333 -1.322916,0.82021 -1.508125,1.5875 0.899584,0.50271 1.957917,1.00541 2.989792,1.32291 z m 1.058333,-3.175 c -0.05292,1.03188 -0.15875,2.38125 -0.423333,3.175 0.661458,-0.8202 1.190625,-1.79916 1.719792,-2.75166 -0.238125,-0.37042 -0.714375,-0.68792 -1.296459,-0.42334 z m -1.217083,-0.44979 c -0.238125,-0.0265 -0.449792,0.29104 -0.767292,0.15875 -0.07938,0.0794 -0.132291,0.15875 -0.211666,0.23813 0.714375,0.84666 1.031875,2.06375 1.5875,3.06916 0.291041,-0.9525 0.264583,-2.01083 0.3175,-3.06916 -0.423334,0.0265 -0.635,-0.34396 -0.926042,-0.39688 z m -0.79375,-1.03187 c -0.02646,0.29104 0.05292,0.39687 0.105833,0.71437 0.978959,0.3175 0.79375,-1.29646 -0.105833,-0.71437 z m -1.058333,-0.34396 c -0.423334,-0.23813 -1.031875,-0.47625 -1.561042,-0.58208 -0.661458,-0.1323 -0.608542,0.89958 -0.582083,1.53458 0.02646,0.47625 0.264583,1.00542 0.396875,1.32292 0.05292,0.15875 0.05292,0.3175 0.185208,0.34395 0.238125,0.0529 0.978958,-0.23812 1.190625,-0.37041 0.449792,-0.23813 0.820208,-0.635 1.190625,-0.89959 0,-0.13229 0,-0.26458 0.02646,-0.39687 -0.238125,-0.10583 -0.502708,-0.18521 -0.846666,-0.21167 0.238125,-0.10583 0.582083,-0.10583 0.79375,-0.26458 0,-0.0529 0,-0.10583 0,-0.15875 -0.396875,0 -0.529167,-0.18521 -0.79375,-0.3175 z m -3.96875,-0.71438 c -0.343959,0.34396 0.9525,0.82021 1.375833,0.84667 0,-0.21167 0.132292,-0.42333 0.105833,-0.58208 -0.47625,-0.0794 -1.137708,-0.0265 -1.481666,-0.26459 z m 4.259791,0.15875 c 0,0.0265 -0.05292,0.0265 -0.05292,0.0529 0.449791,0.34396 0.767291,0.42333 1.375833,0.39688 0.264583,-0.18521 0.502708,-0.42334 0.79375,-0.60855 -0.661458,0.0529 -1.481667,0.4498 -2.116667,0.15875 z m 3.889375,1.19063 c -0.02646,-0.39688 -0.132291,-1.19063 -0.370416,-1.32292 -0.502709,-0.29104 -1.402292,0.58209 -1.772709,0.74084 0.05292,0.10583 0.105834,0.21166 0.105834,0.37041 0.211666,-0.0529 0.502708,-0.0265 0.687916,0.0794 -0.211666,0.0265 -0.47625,0.0265 -0.635,0.13229 -0.05292,0.15875 0.02646,0.37042 -0.02646,0.58208 0.529167,0.15875 1.137708,0.23813 1.825625,0.23813 0.15875,-0.18521 0.185208,-0.50271 0.185208,-0.82021 z m -8.704791,-1.00542 c -0.105834,-0.0794 -0.846667,-1.03187 -0.9525,-0.97896 -1.322917,0.52917 -2.566459,1.42875 -3.677709,2.27542 1.058334,2.24896 1.481667,5.02708 1.561042,7.69938 1.217083,0.55562 2.275417,1.37583 3.915833,1.4552 -0.185208,-1.34937 -0.370416,-2.54 -0.47625,-3.81 -0.423333,-0.1852 -1.005416,0 -1.375833,-0.0529 0,-0.47625 0.582083,-0.21167 0.635,-0.50271 0.02646,-0.23813 -0.3175,-0.26458 -0.211667,-0.635 0.291042,0.10583 0.449792,0.34396 0.79375,0.44979 0.291042,-0.635 0,-1.77271 0.02646,-2.32833 0,-0.10584 0.05292,-0.55563 0.264584,-0.47625 0.211666,0.0794 0,1.21708 0,1.71979 0.02646,0.47625 -0.05292,0.92604 0.132291,1.21708 1.5875,-0.21166 3.201459,-0.34396 4.894792,-0.39687 -0.370416,-0.15875 -0.820208,-0.3175 -1.322916,-0.58209 -0.264584,-0.15875 -1.11125,-0.44979 -1.190625,-0.71437 -0.132292,-0.39688 0.3175,-0.60854 0.396875,-0.9525 -0.79375,0.42333 -0.952501,-0.42333 -1.137709,-1.03188 -0.15875,-0.55562 -0.264583,-0.9525 -0.3175,-1.27 -0.635,-0.34395 -1.375833,-0.66145 -1.957917,-1.08479 z m 7.990416,-0.87312 c 1.11125,-0.52917 1.296459,2.01083 0.873125,2.80458 0.07938,0.23813 0.291042,0.34396 0.396875,0.55563 -0.608541,1.11125 -1.296458,2.14312 -1.931458,3.22791 0.47625,-0.29104 1.137708,-0.0529 1.693333,-0.26458 0.211667,-0.0794 0.343959,-0.52917 0.502709,-0.89958 0.423333,-1.00542 0.846666,-2.27542 1.058333,-3.25438 0.05292,-0.21167 0.15875,-0.68792 0.132292,-0.89958 -0.05292,-0.34396 -0.529167,-0.60854 -0.767292,-0.82021 -0.449792,-0.39688 -0.714375,-0.74083 -1.190625,-1.13771 -0.185208,0.26458 -0.608542,0.44979 -0.767292,0.68792 z m -10.530416,-9.78959 c -0.529167,0.58209 -0.423334,1.66688 -0.343959,2.43417 0.9525,-0.60854 2.2225,0.0529 2.196042,1.05833 0.449792,0 0.15875,-0.55562 0.07938,-0.92604 -0.264583,-1.16416 0.449792,-2.43416 0.02646,-3.4925 -0.79375,0.0529 -1.455208,0.39688 -1.957916,0.92604 z m 3.757083,-3.3602 c -1.190625,0.34395 -2.725208,1.19062 -3.201458,2.27541 0.370416,-0.0529 0.635,-0.23812 1.005416,-0.26458 0.132292,0 0.3175,0.0529 0.47625,0.0265 0.3175,-0.0794 0.608542,-0.79375 0.846667,-1.08479 0.238125,-0.26459 0.529167,-0.37042 0.714375,-0.60855 0.132292,-0.0529 0.3175,-0.0529 0.3175,-0.23812 -0.02646,-0.0794 -0.07938,-0.10583 -0.15875,-0.10583 z m 6.19125,0.3175 c -1.243542,-0.68792 -3.33375,-1.21709 -4.630208,-0.55563 -1.058334,0.52917 -2.487084,1.40229 -2.989792,2.51354 0.449792,1.05834 -0.132292,2.03729 -0.185208,3.12209 -0.02646,0.58208 0.264583,1.08479 0.291041,1.71979 -0.15875,0.26458 -0.635,0.29104 -0.9525,0.26458 -0.105833,-0.55562 -0.3175,-1.19062 -0.873125,-1.24354 -0.820208,-0.0794 -1.402291,0.58208 -1.42875,1.27 -0.05292,0.82021 0.635,2.19604 1.5875,2.09021 0.370417,-0.0265 0.449792,-0.39688 0.873125,-0.39688 0.211667,0.42334 -0.343958,0.58209 -0.396875,0.87313 -0.02646,0.0794 0.05292,0.39687 0.07938,0.55562 0.185209,0.71438 0.555625,1.64042 0.9525,2.19604 0.47625,0.68792 1.42875,0.79375 2.460625,0.87313 0.185209,-0.39688 0.846667,-0.37042 1.296459,-0.26458 -0.529167,-0.21167 -1.005417,-0.71438 -1.42875,-1.16417 -0.47625,-0.50271 -0.926042,-1.05833 -0.9525,-1.74625 0.873125,1.21708 1.613958,2.30187 3.201458,2.83104 1.217083,0.39688 2.619375,-0.18521 3.571875,-0.84667 0.396875,-0.26458 0.608542,-0.71437 0.899583,-1.11125 1.031875,-1.48166 1.508125,-3.59833 1.402292,-5.63562 -0.05292,-0.84667 -0.05292,-1.69333 -0.3175,-2.24896 -0.291042,-0.58208 -1.296458,-1.11125 -1.878542,-0.58208 -0.105833,-0.58209 0.47625,-0.92604 1.190625,-0.71438 -0.529166,-0.60854 -1.058333,-1.40229 -1.772708,-1.79916 z m 2.301875,19.05 c 0.9525,-0.47625 2.778125,-1.29646 3.360208,0 0.211667,0.47625 0.47625,1.27 0.608542,1.7727 0.15875,0.68792 -0.185208,2.14313 -0.899583,2.38125 -0.635,0.21167 -1.375834,0.18521 -2.116667,0.0529 -0.07937,-0.0794 -0.185208,-0.21167 -0.264583,-0.34396 -0.529167,-0.0265 -1.058334,0.0265 -1.481667,0.26459 0.05292,0.39687 -0.238125,0.47625 -0.47625,0.55562 -0.185208,0.74083 0.370417,1.71979 0.238125,2.40771 -0.105833,0.47625 -0.687917,0.55562 -1.137708,0.66146 -0.02646,0.26458 0.02646,0.50271 0.05292,0.71437 -0.105833,0.37042 -0.555625,0.58209 -0.978958,0.635 -1.402292,0.15875 -3.545417,0.23813 -4.894792,-0.23812 -0.37042,-0.92602 -0.661462,-2.03727 -0.978962,-3.09561 -1.322917,0.13229 -2.38125,-0.55562 -3.386667,-1.03187 -0.343958,-0.15875 -0.820208,-0.23813 -0.9525,-0.52917 -0.132291,-0.26458 -0.07938,-0.79375 -0.105833,-1.27 -0.07938,-1.24354 -0.15875,-2.43417 -0.47625,-3.70417 -0.15875,-0.55562 -0.396875,-1.05833 -0.582083,-1.61395 -0.15875,-0.50271 -0.449792,-1.13771 -0.529167,-1.64042 -0.105833,-0.74083 0.608542,-0.79375 1.058333,-1.11125 0.687917,-0.50271 1.243542,-0.79375 2.010834,-1.24354 0.211666,-0.13229 0.899583,-0.47625 0.978958,-0.635 0.15875,-0.3175 -0.264583,-0.74084 -0.370417,-1.00542 -0.185208,-0.39687 -0.264583,-0.71437 -0.291041,-1.08479 -0.635,-0.10583 -1.11125,-0.47625 -1.402292,-0.89958 -0.47625,-0.71438 -0.820208,-2.01084 -0.396875,-2.9898 0.02646,-0.0794 0.185208,-0.23812 0.211667,-0.34395 0.05292,-0.23813 -0.07937,-0.55563 -0.105834,-0.79375 -0.05292,-1.29646 0.211667,-2.40771 1.084792,-2.77813 0.343958,-1.40229 1.613958,-1.87854 2.804583,-2.56646 0.449792,-0.26458 0.926042,-0.42333 1.42875,-0.60854 1.825625,-0.66146 4.60375,-0.52917 6.111875,0.60854 0.635,0.47625 1.666875,1.50813 2.010834,2.24896 0.9525,1.95792 0.899583,5.21229 0.211666,7.56708 -0.07937,0.3175 -0.211666,0.79375 -0.396875,1.16417 -0.132291,0.26458 -0.529166,0.79375 -0.47625,1.03188 0.05292,0.23812 0.899584,0.89958 1.084792,1.08479 0.343958,0.3175 0.9525,0.74083 1.005417,1.13771 0.05292,0.42333 -0.185209,1.00541 -0.3175,1.42875 -0.370417,1.29645 -0.767292,2.56645 -1.243542,3.81"
         inkscape:connector-curvature="0"
         style="fill:#231f20;stroke-width:0.264583" />
      <path
         id="XMLID_79_"
         class="st7"
         d="m 38.958006,266.21405 c 0.05292,-0.0794 0.343958,-0.18521 0.740833,0.0265 0,0 -0.47625,0.0794 -0.449791,0.87312 l -0.211667,-0.0529 c 0.02646,0.0264 -0.185208,-0.71438 -0.07938,-0.84667"
         inkscape:connector-curvature="0"
         style="fill:#f7e4cd;stroke-width:0.264583" />
      <path
         id="XMLID_80_"
         class="st11"
         d="m 42.450506,273.06676 c 0,0.13229 -0.105833,0.21166 -0.211667,0.21166 -0.132291,0 -0.211666,-0.10583 -0.211666,-0.21166 0,-0.10584 0.105833,-0.21167 0.211666,-0.21167 0.105834,0 0.211667,0.0794 0.211667,0.21167"
         inkscape:connector-curvature="0"
         style="fill:#1d1919;stroke-width:0.264583" />
      <path
         id="XMLID_81_"
         class="st11"
         d="m 42.662173,274.07217 c 0,0.1323 -0.105834,0.21167 -0.211667,0.21167 -0.132292,0 -0.211667,-0.10583 -0.211667,-0.21167 0,-0.10583 0.105834,-0.21166 0.211667,-0.21166 0.105833,0 0.211667,0.10583 0.211667,0.21166"
         inkscape:connector-curvature="0"
         style="fill:#1d1919;stroke-width:0.264583" />
    </g>
  </g>
</svg>
